<svg width="40" height="40" viewBox="0 0 40 40" fill="none" xmlns="http://www.w3.org/2000/svg">
<path fill-rule="evenodd" clip-rule="evenodd" d="M13.333 8.33325C14.6872 8.33317 16.0093 8.74548 17.1233 9.51531C18.2374 10.2851 19.0906 11.376 19.5694 12.6427C20.0483 13.9094 20.13 15.2919 19.8037 16.6062C19.4774 17.9205 18.7586 19.1042 17.743 19.9999C18.7586 20.8956 19.4774 22.0794 19.8037 23.3937C20.13 24.708 20.0483 26.0904 19.5694 27.3571C19.0906 28.6238 18.2374 29.7147 17.1233 30.4845C16.0093 31.2544 14.6872 31.6667 13.333 31.6666H6.66634C5.78229 31.6666 4.93444 31.3154 4.30932 30.6903C3.6842 30.0652 3.33301 29.2173 3.33301 28.3333V11.6666C3.33301 10.7825 3.6842 9.93468 4.30932 9.30956C4.93444 8.68444 5.78229 8.33325 6.66634 8.33325H13.333ZM29.1663 14.9999C33.5113 14.9999 36.6663 18.9466 36.6663 23.3333C36.6663 23.7415 36.5164 24.1355 36.2451 24.4405C35.9739 24.7456 35.6001 24.9405 35.1947 24.9883L34.9997 24.9999H25.233C25.8297 27.0399 27.488 28.3333 29.1663 28.3333C30.9663 28.3333 31.9863 27.4816 32.8997 26.4166C33.187 26.0806 33.596 25.8726 34.0367 25.8382C34.4774 25.8038 34.9137 25.9459 35.2497 26.2333C35.5856 26.5206 35.7937 26.9296 35.828 27.3703C35.8624 27.811 35.7203 28.2473 35.433 28.5833L35.2547 28.7866L34.873 29.1966C33.6697 30.4333 31.9097 31.6666 29.1663 31.6666C24.8213 31.6666 21.6663 27.7199 21.6663 23.3333C21.6663 18.9466 24.8213 14.9999 29.1663 14.9999ZM13.333 21.6666H6.66634V28.3333H13.333C14.198 28.3371 15.0306 28.0046 15.6549 27.406C16.2793 26.8073 16.6465 25.9894 16.6789 25.125C16.7114 24.2606 16.4065 23.4175 15.8289 22.7737C15.2512 22.1299 14.4458 21.7359 13.583 21.6749L13.333 21.6666ZM29.1663 18.3333C27.488 18.3333 25.8297 19.6266 25.233 21.6666H33.0997C32.503 19.6266 30.8447 18.3333 29.1663 18.3333ZM13.333 11.6666H6.66634V18.3333H13.333C14.2171 18.3333 15.0649 17.9821 15.69 17.3569C16.3152 16.7318 16.6663 15.884 16.6663 14.9999C16.6663 14.1159 16.3152 13.268 15.69 12.6429C15.0649 12.0178 14.2171 11.6666 13.333 11.6666ZM31.6663 9.99992C32.1084 9.99992 32.5323 10.1755 32.8449 10.4881C33.1574 10.8006 33.333 11.2246 33.333 11.6666C33.333 12.1086 33.1574 12.5325 32.8449 12.8451C32.5323 13.1577 32.1084 13.3333 31.6663 13.3333H26.6663C26.2243 13.3333 25.8004 13.1577 25.4878 12.8451C25.1753 12.5325 24.9997 12.1086 24.9997 11.6666C24.9997 11.2246 25.1753 10.8006 25.4878 10.4881C25.8004 10.1755 26.2243 9.99992 26.6663 9.99992H31.6663Z" fill="#1E1E1E"/>
</svg>
