<svg width="40" height="40" viewBox="0 0 40 40" fill="none" xmlns="http://www.w3.org/2000/svg">
<path d="M28.334 3.33325H11.6673C7.06494 3.33325 3.33398 7.06421 3.33398 11.6666V28.3333C3.33398 32.9356 7.06494 36.6666 11.6673 36.6666H28.334C32.9364 36.6666 36.6673 32.9356 36.6673 28.3333V11.6666C36.6673 7.06421 32.9364 3.33325 28.334 3.33325Z" stroke="#1E1E1E" stroke-width="3.33333" stroke-linecap="round" stroke-linejoin="round"/>
<path d="M29.1675 10.8333H29.1841M26.6675 18.9499C26.8732 20.337 26.6362 21.7536 25.9904 22.9983C25.3446 24.2429 24.3227 25.2523 23.0702 25.8827C21.8177 26.5131 20.3982 26.7326 19.0138 26.5098C17.6294 26.287 16.3504 25.6334 15.3589 24.6419C14.3673 23.6503 13.7137 22.3714 13.4909 20.9869C13.2682 19.6025 13.4876 18.1831 14.118 16.9305C14.7485 15.678 15.7578 14.6562 17.0025 14.0103C18.2471 13.3645 19.6637 13.1276 21.0508 13.3333C22.4657 13.5431 23.7756 14.2024 24.787 15.2138C25.7984 16.2252 26.4577 17.535 26.6675 18.9499Z" stroke="#1E1E1E" stroke-width="3.33333" stroke-linecap="round" stroke-linejoin="round"/>
</svg>
