<svg width="40" height="40" viewBox="0 0 40 40" fill="none" xmlns="http://www.w3.org/2000/svg">
<path d="M26.6663 13.3333C29.3185 13.3333 31.862 14.3868 33.7374 16.2622C35.6128 18.1375 36.6663 20.6811 36.6663 23.3333V34.9999H29.9997V23.3333C29.9997 22.4492 29.6485 21.6014 29.0234 20.9762C28.3982 20.3511 27.5504 19.9999 26.6663 19.9999C25.7823 19.9999 24.9344 20.3511 24.3093 20.9762C23.6842 21.6014 23.333 22.4492 23.333 23.3333V34.9999H16.6663V23.3333C16.6663 20.6811 17.7199 18.1375 19.5953 16.2622C21.4706 14.3868 24.0142 13.3333 26.6663 13.3333ZM3.33301 14.9999H9.99967V34.9999H3.33301V14.9999Z" stroke="#1E1E1E" stroke-width="3.33333" stroke-linecap="round" stroke-linejoin="round"/>
<path d="M6.66634 9.99992C8.50729 9.99992 9.99967 8.50753 9.99967 6.66659C9.99967 4.82564 8.50729 3.33325 6.66634 3.33325C4.82539 3.33325 3.33301 4.82564 3.33301 6.66659C3.33301 8.50753 4.82539 9.99992 6.66634 9.99992Z" stroke="#1E1E1E" stroke-width="3.33333" stroke-linecap="round" stroke-linejoin="round"/>
</svg>
